<mxfile host="Electron" agent="Mozilla/5.0 (Macintosh; Intel Mac OS X 10_15_7) AppleWebKit/537.36 (KHTML, like Gecko) draw.io/26.0.9 Chrome/128.0.6613.186 Electron/32.2.5 Safari/537.36" version="26.0.9">
  <diagram name="Page-1" id="M8TIZFiBVRt_eYgcdwZX">
    <mxGraphModel dx="1269" dy="894" grid="1" gridSize="10" guides="1" tooltips="1" connect="1" arrows="1" fold="1" page="1" pageScale="1" pageWidth="827" pageHeight="1169" math="0" shadow="0">
      <root>
        <mxCell id="0" />
        <mxCell id="1" parent="0" />
        <mxCell id="V4fzJkrM36grcwL6YR9b-1" value="START" style="ellipse;whiteSpace=wrap;html=1;aspect=fixed;" vertex="1" parent="1">
          <mxGeometry x="320" y="160" width="120" height="120" as="geometry" />
        </mxCell>
        <mxCell id="V4fzJkrM36grcwL6YR9b-2" value="VIEW" style="ellipse;whiteSpace=wrap;html=1;aspect=fixed;" vertex="1" parent="1">
          <mxGeometry x="320" y="360" width="120" height="120" as="geometry" />
        </mxCell>
        <mxCell id="V4fzJkrM36grcwL6YR9b-3" value="MODEL" style="ellipse;whiteSpace=wrap;html=1;aspect=fixed;" vertex="1" parent="1">
          <mxGeometry x="520" y="520" width="120" height="120" as="geometry" />
        </mxCell>
        <mxCell id="V4fzJkrM36grcwL6YR9b-4" value="CONTROLLER" style="ellipse;whiteSpace=wrap;html=1;aspect=fixed;" vertex="1" parent="1">
          <mxGeometry x="120" y="520" width="120" height="120" as="geometry" />
        </mxCell>
        <mxCell id="V4fzJkrM36grcwL6YR9b-5" value="Классы:&lt;div&gt;Справочник&lt;/div&gt;&lt;div&gt;Контакт&lt;/div&gt;&lt;div&gt;Чтение файла&lt;/div&gt;&lt;div&gt;Запись файла&lt;/div&gt;" style="text;html=1;align=left;verticalAlign=middle;whiteSpace=wrap;rounded=0;" vertex="1" parent="1">
          <mxGeometry x="640" y="40" width="190" height="120" as="geometry" />
        </mxCell>
        <mxCell id="V4fzJkrM36grcwL6YR9b-6" value="Исключения:&lt;div&gt;для обработки всевозможных ошибок&lt;/div&gt;" style="text;html=1;align=left;verticalAlign=middle;whiteSpace=wrap;rounded=0;" vertex="1" parent="1">
          <mxGeometry x="640" y="160" width="190" height="120" as="geometry" />
        </mxCell>
      </root>
    </mxGraphModel>
  </diagram>
</mxfile>
